<svg width="32" height="33" viewBox="0 0 32 33" fill="none" xmlns="http://www.w3.org/2000/svg">
<path d="M19.6133 9.44657C19.49 9.32296 19.3434 9.2249 19.1821 9.15799C19.0208 9.09108 18.8479 9.05664 18.6733 9.05664C18.4987 9.05664 18.3258 9.09108 18.1645 9.15799C18.0032 9.2249 17.8567 9.32296 17.7333 9.44657L11.6133 15.5666C11.4897 15.6899 11.3916 15.8364 11.3247 15.9977C11.2578 16.159 11.2234 16.3319 11.2234 16.5066C11.2234 16.6812 11.2578 16.8541 11.3247 17.0154C11.3916 17.1767 11.4897 17.3232 11.6133 17.4466L17.7333 23.5666C17.8568 23.69 18.0033 23.7879 18.1646 23.8547C18.3259 23.9215 18.4987 23.9559 18.6733 23.9559C18.8479 23.9559 19.0208 23.9215 19.182 23.8547C19.3433 23.7879 19.4899 23.69 19.6133 23.5666C19.7368 23.4431 19.8347 23.2966 19.9015 23.1353C19.9683 22.974 20.0027 22.8011 20.0027 22.6266C20.0027 22.452 19.9683 22.2791 19.9015 22.1178C19.8347 21.9566 19.7368 21.81 19.6133 21.6866L14.44 16.4999L19.6133 11.3266C20.1333 10.8066 20.12 9.95323 19.6133 9.44657Z" fill="#0D0603"/>
</svg>
